<svg xmlns="http://www.w3.org/2000/svg" width="145.244" height="100" viewBox="0 0 145.244 100">
  <g id="Group_6272" data-name="Group 6272" transform="translate(-95.984 -63.5)">
    <g id="Group_46" data-name="Group 46" transform="translate(95.984 63.5)">
      <path id="Path_133" data-name="Path 133" d="M45.566-59.59v14.719H1.96V-59.59ZM11.942,11.063V-64.7q0-7.682,3.013-12.741a19.07,19.07,0,0,1,8.257-7.59,27.078,27.078,0,0,1,11.914-2.53,45.728,45.728,0,0,1,8.257.69,57.085,57.085,0,0,1,5.589,1.242l-3.5,14.719a24.779,24.779,0,0,0-2.829-.69,18.157,18.157,0,0,0-3.427-.322q-4.324,0-6.026,2a8.366,8.366,0,0,0-1.7,5.589V11.063ZM84,12.443Q73.1,12.443,65.258,8A30.025,30.025,0,0,1,53.184-4.6q-4.232-8.165-4.232-19.342a41.3,41.3,0,0,1,4.232-19.135A31.234,31.234,0,0,1,65.12-55.91a34.644,34.644,0,0,1,18.1-4.6,37.393,37.393,0,0,1,13.04,2.231,29.393,29.393,0,0,1,10.58,6.693,30.486,30.486,0,0,1,7.061,11.2,44.738,44.738,0,0,1,2.53,15.754v5.382H56.772V-31.393H97.986a15.011,15.011,0,0,0-1.84-7.5,13.388,13.388,0,0,0-5.083-5.129,14.83,14.83,0,0,0-7.521-1.863,15.085,15.085,0,0,0-7.889,2.047A14.681,14.681,0,0,0,70.3-38.362a15.59,15.59,0,0,0-1.978,7.613V-19.2a19.651,19.651,0,0,0,1.955,9.062,13.993,13.993,0,0,0,5.543,5.888,16.74,16.74,0,0,0,8.51,2.07A18.531,18.531,0,0,0,90.3-3.1a12.41,12.41,0,0,0,4.646-2.76,12,12,0,0,0,2.944-4.508l18.123,1.2a24.7,24.7,0,0,1-5.635,11.385A28.309,28.309,0,0,1,99.435,9.752,41.143,41.143,0,0,1,84,12.443Z" transform="translate(-1.96 87.557)" fill="#c1c1c1"/>
    </g>
    <path id="Path_134" data-name="Path 134" d="M18.35,3.528a10.63,10.63,0,0,1-7.8-3.243,10.63,10.63,0,0,1-3.243-7.8,10.5,10.5,0,0,1,3.243-7.728,10.668,10.668,0,0,1,7.8-3.22,10.739,10.739,0,0,1,7.728,3.22,10.4,10.4,0,0,1,3.312,7.728,10.378,10.378,0,0,1-1.541,5.543,11.823,11.823,0,0,1-4.025,4A10.415,10.415,0,0,1,18.35,3.528Z" transform="translate(211.84 159.788)" fill="#c1c1c1"/>
  </g>
</svg>
