<?xml version="1.0" encoding="UTF-8"?><svg id="Layer_2" xmlns="http://www.w3.org/2000/svg" viewBox="0 0 280 400"><defs><style>.cls-1{fill:#fff;}</style></defs><g id="Layer_1-2"><path class="cls-1" d="M224.41,199.95c0-2.29,1.39-4.38,3.53-5.2,6.83-2.62,13.98-6.65,21.44-12.12,8.75-6.42,16.05-15.21,21.87-26.43,5.84-11.22,8.75-25.37,8.75-42.44v-6.42c0-22.07-5.92-41.22-17.75-57.4-11.84-16.2-28.32-28.59-49.42-37.11C191.73,4.29,167.45,0,140,0s-51.73,4.29-72.83,12.83c-21.11,8.52-37.57,20.91-49.42,37.11C5.91,66.12,0,85.27,0,107.35v6.42c0,17.07,2.91,31.22,8.75,42.44s13.04,20.02,21.61,26.43c7.34,5.49,14.55,9.53,21.64,12.15,2.17,.8,3.58,2.91,3.58,5.22h0v.05c0,2.29-1.39,4.38-3.53,5.2-6.83,2.62-13.98,6.65-21.44,12.12-8.75,6.42-16.05,15.21-21.87,26.43-5.84,11.22-8.75,25.37-8.75,42.44v6.42c0,22.07,5.92,41.22,17.75,57.4,11.84,16.2,28.32,28.59,49.42,37.11,21.1,8.55,45.38,12.83,72.83,12.83s51.73-4.29,72.83-12.83c21.11-8.52,37.57-20.91,49.42-37.11,11.84-16.18,17.75-35.33,17.75-57.4v-6.42c0-17.07-2.91-31.22-8.75-42.44s-13.04-20.02-21.61-26.43c-7.34-5.49-14.55-9.53-21.64-12.15-2.17-.8-3.58-2.91-3.58-5.22h0v-.05Zm-40.67,38.84c4.31,1.86,8.18,4.06,11.59,6.63,12.51,9.41,18.78,21.97,18.78,37.63v4.29c0,15.66-6.44,28.22-19.31,37.63-12.86,9.44-31.14,14.15-54.81,14.15s-41.94-4.71-54.81-14.15c-12.87-9.41-19.31-21.97-19.31-37.63v-4.29c0-15.66,6.35-28.22,19.04-37.63,3.35-2.5,7.14-4.66,11.33-6.47,14.69-6.39,24.39-21.17,24.39-37.69v-2.35c0-16.52-9.68-31.36-24.39-37.68-4.31-1.86-8.18-4.06-11.59-6.63-12.51-9.41-18.78-21.97-18.78-37.63v-4.29c0-15.66,6.44-28.22,19.31-37.63,12.86-9.44,31.14-14.15,54.81-14.15s41.94,4.71,54.81,14.15c12.87,9.41,19.31,21.97,19.31,37.63v4.29c0,15.66-6.35,28.22-19.04,37.63-3.35,2.5-7.14,4.66-11.33,6.47-14.69,6.39-24.39,21.17-24.39,37.69v2.35c0,16.52,9.68,31.36,24.39,37.68Z"/></g></svg>