<svg id="Group_6104" data-name="Group 6104" xmlns="http://www.w3.org/2000/svg" xmlns:xlink="http://www.w3.org/1999/xlink" width="75.757" height="42.283" viewBox="0 0 75.757 42.283">
  <defs>
    <clipPath id="clip-path">
      <rect id="Rectangle_1103" data-name="Rectangle 1103" width="75.757" height="42.283" fill="#fff"/>
    </clipPath>
  </defs>
  <g id="Group_6004" data-name="Group 6004" transform="translate(0)">
    <g id="Group_6003" data-name="Group 6003" clip-path="url(#clip-path)">
      <path id="Path_1271" data-name="Path 1271" d="M199.687,42.283c-.822-.857-1.63-1.729-2.47-2.568-3.6-3.6-7.209-7.19-10.761-10.73l4.417-4.379,8.786,8.78L233.114,0l4.772,4.748a4.359,4.359,0,0,0-.928.568q-17.022,16.955-34.023,33.932-1.52,1.516-3.038,3.035Z" transform="translate(-162.13)" fill="#fff"/>
      <path id="Path_1272" data-name="Path 1272" d="M4.452,41.543,0,37.093,35.324,1.924l13.168,13L44.115,19.3l-8.659-8.695-31,30.937" transform="translate(0 -1.673)" fill="#fff"/>
      <path id="Path_1273" data-name="Path 1273" d="M455.716,219.367l-4.195,4.134-8.139-8.156,4.177-4.121,8.157,8.143" transform="translate(-385.536 -183.666)" fill="#fff"/>
    </g>
  </g>
</svg>
