<svg xmlns="http://www.w3.org/2000/svg" xmlns:xlink="http://www.w3.org/1999/xlink" width="62.694" height="43.164" viewBox="0 0 62.694 43.164">
  <defs>
    <linearGradient id="linear-gradient" x1="1" x2="0.5" y2="1" gradientUnits="objectBoundingBox">
      <stop offset="0" stop-color="#ff9d00"/>
      <stop offset="1" stop-color="#ff0076"/>
    </linearGradient>
  </defs>
  <g id="Group_93" data-name="Group 93" transform="translate(-95.984 -63.5)">
    <g id="Group_92" data-name="Group 92" transform="translate(95.984 63.5)">
      <g id="Group_46" data-name="Group 46" transform="translate(0)">
        <path id="Path_133" data-name="Path 133" d="M19.862-75.485v6.354H1.96v-6.354Zm-13.8,30.5v-32.7a11.044,11.044,0,0,1,1.237-5.5,7.992,7.992,0,0,1,3.39-3.276,10.66,10.66,0,0,1,4.891-1.092,17.88,17.88,0,0,1,3.39.3,22.457,22.457,0,0,1,2.294.536l-1.435,6.354a9.763,9.763,0,0,0-1.161-.3,7.1,7.1,0,0,0-1.407-.139,3.028,3.028,0,0,0-2.474.864,3.738,3.738,0,0,0-.7,2.412v32.542Zm29.583.6a14.778,14.778,0,0,1-7.7-1.916,12.7,12.7,0,0,1-4.957-5.44A18.69,18.69,0,0,1,21.252-60.1a18.593,18.593,0,0,1,1.737-8.26,13.24,13.24,0,0,1,4.9-5.539,13.683,13.683,0,0,1,7.431-1.985,14.678,14.678,0,0,1,5.353.963,12,12,0,0,1,4.343,2.889,13.265,13.265,0,0,1,2.9,4.835,20.213,20.213,0,0,1,1.039,6.8v2.323H24.462v-5.242h16.92a6.746,6.746,0,0,0-.755-3.236,5.649,5.649,0,0,0-2.087-2.214,5.854,5.854,0,0,0-3.087-.8,5.96,5.96,0,0,0-3.239.884,6.2,6.2,0,0,0-2.2,2.363,7,7,0,0,0-.812,3.286v4.984a8.849,8.849,0,0,0,.8,3.911A5.926,5.926,0,0,0,32.28-51.6a6.607,6.607,0,0,0,3.493.893,7.268,7.268,0,0,0,2.455-.4,5.051,5.051,0,0,0,1.907-1.191,5.211,5.211,0,0,0,1.209-1.946l7.44.516a10.885,10.885,0,0,1-2.313,4.914,11.63,11.63,0,0,1-4.494,3.256A16.156,16.156,0,0,1,35.641-44.393Z" transform="translate(-1.96 87.557)" fill="#fff"/>
      </g>
      <path id="Path_134" data-name="Path 134" d="M12.942-7.242A5.423,5.423,0,0,1,8.964-8.9,5.423,5.423,0,0,1,7.31-12.874a5.358,5.358,0,0,1,1.654-3.942,5.443,5.443,0,0,1,3.978-1.643,5.479,5.479,0,0,1,3.942,1.643,5.3,5.3,0,0,1,1.69,3.942,5.3,5.3,0,0,1-.786,2.828A6.032,6.032,0,0,1,15.735-8,5.313,5.313,0,0,1,12.942-7.242Z" transform="translate(44.12 50.312)" fill="url(#linear-gradient)"/>
    </g>
  </g>
</svg>
