<svg xmlns="http://www.w3.org/2000/svg" width="57.055" height="47.358" viewBox="0 0 57.055 47.358">
  <g id="Group_6243" data-name="Group 6243" transform="translate(-1220.973 -645.089)">
    <path id="Path_5241" data-name="Path 5241" d="M27.446.061A46.607,46.607,0,0,1,39.371.9,22.3,22.3,0,0,1,51.341,7.248a20.261,20.261,0,0,1,5.084,10.231,30.9,30.9,0,0,1-.224,13.44A19.637,19.637,0,0,1,43.69,45.152,33.76,33.76,0,0,1,31.7,47.328c-3,.052-6,.055-8.99-.153A27.3,27.3,0,0,1,9.2,42.956,19.427,19.427,0,0,1,.817,30.506,28.5,28.5,0,0,1,2.255,12.479,19.112,19.112,0,0,1,12.763,2.4,32.983,32.983,0,0,1,23.564.074c1.289-.086,2.588-.014,3.882-.014m.1,43.214c2.425-.128,4.855-.19,7.272-.4a24.551,24.551,0,0,0,8.9-2.361,14.994,14.994,0,0,0,7.92-9.088,25.646,25.646,0,0,0,.466-13.839,15.435,15.435,0,0,0-4.371-7.937,18.977,18.977,0,0,0-9.821-4.684,52.1,52.1,0,0,0-11.4-.744,33.644,33.644,0,0,0-11.69,1.97,15.232,15.232,0,0,0-9.3,9.687,25.813,25.813,0,0,0-.864,11.986c1,7.075,4.928,11.755,11.777,13.889a40.777,40.777,0,0,0,11.112,1.522" transform="translate(1220.973 645.09)" fill="#c1c1c1"/>
    <path id="Path_5242" data-name="Path 5242" d="M83.844,92.762a37.791,37.791,0,0,1-10.327-1.1c-5.6-1.591-8.72-5.425-9.215-11.243a25.255,25.255,0,0,1,.382-7.722,11.328,11.328,0,0,1,7.726-8.684,26.891,26.891,0,0,1,7.482-1.345,57.56,57.56,0,0,1,10.612.263,21.269,21.269,0,0,1,6.345,1.72,10.861,10.861,0,0,1,6.248,7.62,22.751,22.751,0,0,1,.1,10.391c-1.017,4.676-4.024,7.482-8.5,8.848a37.178,37.178,0,0,1-10.848,1.253" transform="translate(1165.57 591.098)" fill="#c1c1c1"/>
  </g>
</svg>
