<svg xmlns="http://www.w3.org/2000/svg" width="120.474" height="99.998" viewBox="0 0 120.474 99.998">
  <g id="Group_6264" data-name="Group 6264" transform="translate(-8276.826 -20174)">
    <g id="Group_6262" data-name="Group 6262" transform="translate(8276.826 20174)">
      <path id="Path_5243" data-name="Path 5243" d="M57.954.129A98.413,98.413,0,0,1,83.134,1.91C92.8,4,101.525,7.973,108.407,15.306a42.782,42.782,0,0,1,10.736,21.6,65.251,65.251,0,0,1-.472,28.379c-3.593,14.561-12.5,24.531-26.417,30.053a71.286,71.286,0,0,1-25.321,4.595c-6.326.11-12.677.117-18.983-.322-10.165-.708-19.9-3.185-28.514-8.908C9.939,84.4,4.168,75.456,1.725,64.415-1.143,51.447-.633,38.631,4.762,26.351c4.425-10.073,12.08-17,22.188-21.281C34.246,1.98,41.924.68,49.757.158c2.721-.182,5.464-.029,8.2-.029m.22,91.249c5.12-.271,10.252-.4,15.356-.849a51.84,51.84,0,0,0,18.786-4.985,31.661,31.661,0,0,0,16.724-19.189,54.153,54.153,0,0,0,.984-29.221A32.591,32.591,0,0,0,100.8,20.375c-5.838-5.574-13.009-8.384-20.738-9.89A110.015,110.015,0,0,0,55.99,8.914c-8.427.225-16.757,1.015-24.684,4.161C21.656,16.9,14.987,23.613,11.667,33.529,8.9,41.809,8.631,50.3,9.843,58.838c2.122,14.94,10.407,24.821,24.868,29.327,7.623,2.376,15.505,2.993,23.463,3.213" transform="translate(0 0.001)" fill="#fafafa"/>
      <path id="Path_5244" data-name="Path 5244" d="M105.707,126.354c-7.35-.018-14.676-.3-21.807-2.324-11.831-3.36-18.412-11.455-19.458-23.741a53.327,53.327,0,0,1,.807-16.3c2.044-9.136,7.518-15.2,16.315-18.337a56.783,56.783,0,0,1,15.8-2.839,121.539,121.539,0,0,1,22.407.555A44.91,44.91,0,0,1,133.168,67a22.933,22.933,0,0,1,13.194,16.09,48.04,48.04,0,0,1,.2,21.94c-2.147,9.874-8.5,15.8-17.953,18.683-7.471,2.279-15.171,2.621-22.906,2.645" transform="translate(-45.653 -44.488)" fill="#fafafa"/>
    </g>
  </g>
</svg>
