<svg xmlns="http://www.w3.org/2000/svg" width="66.795" height="100" viewBox="0 0 66.795 100">
  <g id="svgexport-7" transform="translate(-48.721)">
    <path id="Path_5275" data-name="Path 5275" d="M104.7.55a5.165,5.165,0,0,1-2.575,5.088L53.793,33.064A10,10,0,0,0,50.021,46.7L56.868,58.78l1.544,2.729,1.019-.574a5.156,5.156,0,0,1,2.581-5.075l48.364-27.4a10,10,0,0,0,3.767-13.633L107.3,2.748,105.744,0Z" fill="#c1c1c1"/>
    <path id="Path_5276" data-name="Path 5276" d="M104.837,55.166a5.155,5.155,0,0,1-2.581,5.075L53.892,87.656a10,10,0,0,0-3.773,13.621l6.847,12.077,1.556,2.748,1.013-.574a5.162,5.162,0,0,1,2.575-5.088l48.364-27.4A10,10,0,0,0,114.246,69.4L107.4,57.321l-1.544-2.729Z" transform="translate(-0.031 -16.101)" fill="#c1c1c1"/>
  </g>
</svg>
