<svg xmlns="http://www.w3.org/2000/svg" width="206.549" height="63.866" viewBox="0 0 206.549 63.866">
  <g id="Group_6067" data-name="Group 6067" transform="translate(-3.451 -5.113)">
    <g id="Group_6065" data-name="Group 6065" transform="translate(3.451 5.113)">
      <path id="Path_5220" data-name="Path 5220" d="M2305.251,1647.847c-.35-.569-.58-.92-.788-1.283q-2.287-4-4.566-8.006a6.247,6.247,0,0,1,2.445-9q15.255-8.617,30.533-17.192a3.758,3.758,0,0,0,2.293-3.226c.008-.185.247-.36.378-.54.156.119.37.2.46.361,1.812,3.161,3.721,6.273,5.376,9.515a6.131,6.131,0,0,1-2.716,8.112q-11.1,6.275-22.234,12.5c-2.8,1.575-5.591,3.177-8.412,4.717a3.877,3.877,0,0,0-2.365,3.308C2305.647,1647.281,2305.478,1647.446,2305.251,1647.847Z" transform="translate(-2298.904 -1608.598)" fill="#8d8d8d"/>
      <path id="Path_5221" data-name="Path 5221" d="M2305.327,1719.252c-.208-.3-.439-.594-.622-.912q-2.351-4.088-4.685-8.185a6.253,6.253,0,0,1,2.461-9.008q14.973-8.467,29.99-16.858c1.5-.836,2.836-1.7,2.858-3.661,0-.154.227-.306.439-.572.254.377.463.649.632.944,1.6,2.789,3.208,5.576,4.789,8.377a6.279,6.279,0,0,1-2.479,8.85q-14.339,8.066-28.681,16.126c-1.974,1.115-4.48,1.794-4.242,5.005Z" transform="translate(-2298.986 -1655.494)" fill="#8d8d8d"/>
    </g>
    <g id="Group_6066" data-name="Group 6066" transform="translate(70.775 13.406)">
      <path id="Path_5222" data-name="Path 5222" d="M2502.607,1647.681l-4.614,4.335c-2.348-.779-4.437-1.508-6.552-2.147a4.726,4.726,0,0,0-1.779-.05c-2.274.225-4.115,1.538-4.439,3.114-.336,1.633.568,3.078,3,4.161,3.326,1.479,6.865,2.519,10.082,4.191,7.06,3.668,7.317,12.415.564,16.585a13.005,13.005,0,0,1-4.593,1.765c-5.749.945-11.239.185-16.191-3.141-.534-.359-1.026-.781-1.706-1.3l5.224-4.887a13.307,13.307,0,0,0,8.7,3.166,8.705,8.705,0,0,0,3.955-1.022,2.891,2.891,0,0,0,.1-5.2,49.706,49.706,0,0,0-5.418-2.45c-2.575-1.186-5.388-2.061-7.646-3.7-5.405-3.912-5.1-11.407.367-15.2C2487.3,1641.994,2497.4,1642.781,2502.607,1647.681Z" transform="translate(-2476.385 -1642.94)" fill="#8d8d8d"/>
      <path id="Path_5223" data-name="Path 5223" d="M2562.566,1693.237v11.749h-6.785v-36.623c2.368.319,4.676.641,6.989.928a1.92,1.92,0,0,0,1.044-.143c5.922-2.989,12.791.212,15.824,4.6a13.61,13.61,0,0,1-.57,16.287c-3.926,4.706-9.971,5.955-15.832,3.278A3.384,3.384,0,0,0,2562.566,1693.237Zm4.422-4.089c3.828.012,6.417-1.716,7.517-4.63a8.223,8.223,0,0,0-1.981-9.106,8.126,8.126,0,0,0-8.947-.741,2.644,2.644,0,0,0-.959,1.9c-.109,2.909.071,5.832-.111,8.734a2.946,2.946,0,0,0,2.343,3.356A18.378,18.378,0,0,0,2566.988,1689.147Z" transform="translate(-2524.12 -1657.708)" fill="#8d8d8d"/>
      <path id="Path_5224" data-name="Path 5224" d="M2726.645,1694.744c-8.808,0-15.234-6.6-14.468-14.825.524-5.637,5.509-10.5,11.951-11.668,6.816-1.233,14.125,2.519,16.426,8.431,3.315,8.515-2.923,17.518-12.515,18.059C2727.576,1694.767,2727.109,1694.744,2726.645,1694.744Zm7.888-13.345a7.788,7.788,0,0,0-15.575-.083,7.788,7.788,0,0,0,15.575.083Z" transform="translate(-2618.113 -1657.728)" fill="#8d8d8d"/>
      <path id="Path_5225" data-name="Path 5225" d="M2644.828,1694.886c-8.573-.154-14.929-6.346-14.532-14.368.217-4.381,2.528-7.609,6.076-9.979a15.794,15.794,0,0,1,17.948.557c4.335,3.289,6.075,7.735,4.967,12.991-1.187,5.635-5.14,8.787-10.537,10.229A32.666,32.666,0,0,1,2644.828,1694.886Zm7.854-13.531a7.8,7.8,0,0,0-15.594.1,7.8,7.8,0,0,0,15.594-.1Z" transform="translate(-2568.91 -1657.725)" fill="#8d8d8d"/>
      <path id="Path_5226" data-name="Path 5226" d="M2796.248,1642.217h6.981v2.389q0,12.062.007,24.126c0,.4,0,.8,0,1.2.037,3.772.8,4.4,4.651,3.545a35.716,35.716,0,0,1-.054,4.1,1.945,1.945,0,0,1-1.151,1.261c-5.9,1.989-10.428-1.28-10.433-7.486C2796.243,1661.718,2796.248,1652.083,2796.248,1642.217Z" transform="translate(-2668.694 -1642.217)" fill="#8d8d8d"/>
    </g>
  </g>
</svg>
